<svg width="16" height="16" viewBox="0 0 16 16" fill="none" xmlns="http://www.w3.org/2000/svg">
<mask id="mask0_4891_778" style="mask-type:alpha" maskUnits="userSpaceOnUse" x="0" y="0" width="16" height="16">
<rect width="16" height="16" fill="white"/>
</mask>
<g mask="url(#mask0_4891_778)">
<path d="M12.3041 2.77427C12.8714 2.76336 13.3341 3.22606 13.3232 3.79332L13.2682 6.64853C13.2513 7.53003 12.1847 7.95983 11.5613 7.33641L8.76103 4.53612C8.1376 3.9127 8.5674 2.84616 9.4489 2.8292L12.3041 2.77427Z" fill="white"/>
<path d="M2.75669 12.3246C2.74578 12.8919 3.20848 13.3546 3.77574 13.3437L6.63095 13.2887C7.51245 13.2718 7.94226 12.2052 7.31883 11.5818L4.51855 8.78154C3.89512 8.15811 2.82858 8.58791 2.81162 9.46941L2.75669 12.3246Z" fill="white"/>
<circle cx="8.04004" cy="8.05882" r="1.5" transform="rotate(45 8.04004 8.05882)" fill="#B2B2B2"/>
</g>
</svg>
